<svg version="1.1" id="Layer_1" xmlns="http://www.w3.org/2000/svg" xmlns:xlink="http://www.w3.org/1999/xlink" x="0px" y="0px"
	 width="100%" viewBox="0 0 100 100" enable-background="new 0 0 100 100" xml:space="preserve">
<path fill="#F000" opacity="1.000000" stroke="none" 
	d="
M64.000000,101.000000 
	C42.666672,101.000000 21.833342,101.000000 1.000008,101.000000 
	C1.000006,67.666679 1.000006,34.333351 1.000003,1.000022 
	C34.333317,1.000015 67.666634,1.000015 100.999969,1.000007 
	C100.999977,34.333309 100.999977,67.666618 100.999985,100.999969 
	C88.833336,101.000000 76.666664,101.000000 64.000000,101.000000 
M46.819839,14.997955 
	C36.941090,16.251083 28.924269,20.803835 22.838387,28.673521 
	C16.265198,37.173355 14.253884,46.883312 16.746996,57.143063 
	C19.733990,69.435249 27.531963,77.582260 39.524311,82.185715 
	C52.596912,87.203827 71.181137,81.694633 78.112793,70.763275 
	C74.686432,68.633514 71.251991,66.498726 67.693970,64.287132 
	C52.953793,73.111923 40.958469,72.750740 33.550900,63.071346 
	C26.808270,54.260838 27.510437,41.875614 35.308830,34.151840 
	C44.845253,24.706665 57.881905,26.332748 67.825348,34.708321 
	C71.237244,32.491280 74.585701,30.315460 78.117775,28.020323 
	C70.419182,17.919075 60.067474,14.195106 46.819839,14.997955 
M52.190765,60.972424 
	C53.426044,60.620136 54.710445,60.385464 55.887516,59.893814 
	C59.627422,58.331711 63.436523,51.869114 62.741199,48.416073 
	C61.596165,42.729763 56.969456,38.222443 52.059536,38.010044 
	C44.723854,37.692711 39.268528,42.228401 39.025433,48.846912 
	C38.770756,55.780689 43.776680,60.709621 52.190765,60.972424 
M73.822632,44.762058 
	C70.765038,54.659588 75.777992,59.418472 84.367561,61.154919 
	C84.918694,56.689060 85.984566,52.272240 85.833794,47.897346 
	C85.719551,44.582550 84.054153,41.321205 83.079033,38.036076 
	C80.063026,40.019043 77.047028,42.002007 73.822632,44.762058 
z"/>
<path fill="#FDFEFF" opacity="1.000000" stroke="none" 
	d="
M47.281612,14.997911 
	C60.067474,14.195106 70.419182,17.919075 78.117775,28.020323 
	C74.585701,30.315460 71.237244,32.491280 67.825348,34.708321 
	C57.881905,26.332748 44.845253,24.706665 35.308830,34.151840 
	C27.510437,41.875614 26.808270,54.260838 33.550900,63.071346 
	C40.958469,72.750740 52.953793,73.111923 67.693970,64.287132 
	C71.251991,66.498726 74.686432,68.633514 78.112793,70.763275 
	C71.181137,81.694633 52.596912,87.203827 39.524311,82.185715 
	C27.531963,77.582260 19.733990,69.435249 16.746996,57.143063 
	C14.253884,46.883312 16.265198,37.173355 22.838387,28.673521 
	C28.924269,20.803835 36.941090,16.251083 47.281612,14.997911 
z"/>
<path fill="#FBFDFE" opacity="1.000000" stroke="none" 
	d="
M51.777023,60.983719 
	C43.776680,60.709621 38.770756,55.780689 39.025433,48.846912 
	C39.268528,42.228401 44.723854,37.692711 52.059536,38.010044 
	C56.969456,38.222443 61.596165,42.729763 62.741199,48.416073 
	C63.436523,51.869114 59.627422,58.331711 55.887516,59.893814 
	C54.710445,60.385464 53.426044,60.620136 51.777023,60.983719 
z"/>
<path fill="#FBFDFE" opacity="1.000000" stroke="none" 
	d="
M73.926826,44.373516 
	C77.047028,42.002007 80.063026,40.019043 83.079033,38.036076 
	C84.054153,41.321205 85.719551,44.582550 85.833794,47.897346 
	C85.984566,52.272240 84.918694,56.689060 84.367561,61.154919 
	C75.777992,59.418472 70.765038,54.659588 73.926826,44.373516 
z"/>
</svg>